<svg width="119" height="110" viewBox="0 0 119 110" fill="none" xmlns="http://www.w3.org/2000/svg">
<path d="M111.283 29.0894H104.304V19.9533L101.893 19.4455C99.1017 18.8114 96.183 18.4307 93.3913 18.1773V0.411987L86.5391 3.07642C73.5966 8.02554 62.6837 17.1616 55.3244 28.8359C44.158 26.6784 34.2606 20.4611 27.4083 11.4513L21.5716 3.7114V19.8261L6.97861 16.0197V20.3339L0 18.5579V95.7074L55.3244 109.412H118.516V34.292H111.41V29.0894H111.283ZM102.655 93.1701L104.177 93.5508V31.6275H108.746V100.149H60.2727C72.8353 92.1545 88.1888 89.6172 102.655 93.1701ZM93.2642 74.1358V20.7145C95.9295 20.9689 98.594 21.3495 101.258 21.8564L101.639 21.9836V90.3785C87.6819 87.3326 72.9625 89.6172 60.6533 96.8493C68.2669 86.5713 78.9264 78.8314 91.1076 74.7707L93.2642 74.1358ZM57.2276 31.1197V30.7391C64.2071 19.192 74.8657 10.3094 87.4275 5.36111L90.8541 4.09203V72.3598L90.4734 72.4861C77.0223 76.8011 65.6024 85.4294 57.481 96.8493L57.2276 97.2308V31.1197ZM24.1089 11.325L25.378 12.9747C32.6109 22.4914 43.0161 28.9622 54.6894 31.2469V99.6409L51.3909 98.7533C40.2245 95.7074 30.7077 88.7288 24.4895 78.9577L24.1089 78.3236V11.325ZM9.51672 19.3192L21.5716 22.4914V78.9577L22.3329 80.2268C26.0129 86.0635 30.9612 91.1398 36.7979 94.9461L9.51672 87.7132V19.3192ZM49.7412 105.351L2.53816 93.9314V21.9836L6.97861 23.1255V89.7435L52.4056 101.671C52.025 101.798 51.7715 102.052 51.5172 102.306C50.6296 103.068 49.9947 104.209 49.7412 105.351ZM55.8322 106.874L52.1522 105.986C52.2794 105.351 52.66 104.717 53.1669 104.209C53.6747 103.829 54.1825 103.702 54.6894 103.702H55.8322C56.9741 103.829 57.8626 104.337 58.6239 105.224C59.0045 105.732 59.1308 106.367 59.1308 107.001L55.8322 106.874ZM115.978 36.8301V106.874H61.7961C61.7961 105.732 61.4155 104.717 60.7805 103.702C60.527 103.321 60.1464 102.94 59.7657 102.56H111.41V36.8301H115.978Z" fill="#9B9B9B"/>
<path d="M50.2698 45.3961L51.0398 42.8978C42.8258 40.3994 35.3827 35.5342 29.6074 28.9596L27.6826 30.669C33.7148 37.6381 41.5429 42.7663 50.2698 45.3961Z" fill="#9B9B9B"/>
<path d="M50.2698 57.5072L51.0398 55.1404C42.8258 52.7735 35.3827 48.1644 29.6074 41.9358L27.6826 43.5552C33.7148 50.1575 41.5429 55.0158 50.2698 57.5072Z" fill="#9B9B9B"/>
<path d="M50.2698 70.4834L51.0398 67.9851C42.8258 65.4867 35.3827 60.6215 29.6074 54.0469L27.6826 55.7563C33.7148 62.7254 41.5429 67.8536 50.2698 70.4834Z" fill="#9B9B9B"/>
<path d="M50.2698 82.5945L51.0398 80.2277C42.8258 77.8608 35.3827 73.2517 29.6074 67.0231L27.6826 68.6425C33.7148 75.2448 41.5429 80.1031 50.2698 82.5945Z" fill="#9B9B9B"/>
</svg>
