<svg width="139" height="124" viewBox="0 0 139 124" fill="none" xmlns="http://www.w3.org/2000/svg">
<path d="M137.489 0.411987H1.51058C1.11047 0.411987 0.72571 0.571278 0.442334 0.855247C0.158958 1.13922 0 1.52478 0 1.92573V85.1978C0 85.5995 0.158958 85.9843 0.442334 86.2683C0.72571 86.5522 1.11047 86.7115 1.51058 86.7115H8.61185C8.44597 86.9239 8.26474 87.1356 8.11345 87.348C3.19009 93.9985 0.540638 102.064 0.559069 110.346V121.897C0.559069 122.299 0.718028 122.685 1.0014 122.969C1.28478 123.253 1.66954 123.412 2.06965 123.412H76.4953C76.8962 123.412 77.2802 123.253 77.5635 122.969C77.8469 122.685 78.0059 122.299 78.0059 121.897V110.331C78.0235 102.05 75.3741 93.9839 70.4515 87.3326L69.9531 86.7115H103.857V92.768C103.857 93.1697 104.017 93.5545 104.3 93.8384C104.583 94.1224 104.967 94.2818 105.368 94.2818H127.457C127.858 94.2818 128.242 94.1224 128.525 93.8384C128.808 93.5545 128.968 93.1697 128.968 92.768V86.7115H137.489C137.89 86.7115 138.274 86.5522 138.558 86.2683C138.841 85.9843 139 85.5995 139 85.1978V1.92573C139 1.52478 138.841 1.13922 138.558 0.855247C138.274 0.571278 137.89 0.411987 137.489 0.411987ZM74.9847 110.331V120.368H3.58097V110.331C3.56792 102.694 6.02154 95.2575 10.5763 89.1341C14.0014 84.4721 18.4939 80.7028 23.6753 78.1425H23.8266C26.3386 76.8965 28.9919 75.9615 31.7281 75.3566L32.9975 80.8529L27.6034 105.697C27.5527 105.928 27.5566 106.167 27.6142 106.395C27.6718 106.625 27.7823 106.836 27.9359 107.015L38.1344 118.93C38.2765 119.096 38.4523 119.23 38.6505 119.322C38.8486 119.413 39.0644 119.46 39.2825 119.46C39.5006 119.46 39.7164 119.413 39.9145 119.322C40.1126 119.23 40.2893 119.096 40.4306 118.93L50.5991 107.015C50.7527 106.836 50.8633 106.625 50.9208 106.395C50.9784 106.167 50.9823 105.928 50.9316 105.697L45.5075 80.9129L46.8369 75.3566C49.2229 75.863 51.5475 76.6249 53.7715 77.6276L54.7691 78.067C60.0035 80.6312 64.5398 84.429 67.9894 89.1341C72.5426 95.2583 74.9963 102.694 74.9847 110.331ZM42.7575 79.3384H35.8075L34.7799 74.7964C35.3091 74.721 35.8228 74.6756 36.2913 74.6302C38.3018 74.4632 40.3238 74.4632 42.3343 74.6302L43.7551 74.781L42.7575 79.3384ZM47.8191 105.622L39.2825 115.615L30.7159 105.607L35.8075 82.3666H42.7275L47.8191 105.622ZM42.6369 71.6774C40.4551 71.4958 38.2619 71.4958 36.0793 71.6774C35.0672 71.6774 33.9943 71.8898 32.6804 72.1014C29.1693 72.704 25.7572 73.7898 22.5418 75.3266L22.3759 75.402C21.9382 75.6137 21.4997 75.8561 21.0612 76.0985H10.5763V11.0104H128.424V76.1139H57.4131L55.9018 75.3566L54.875 74.9026C51.9806 73.5997 48.9349 72.6639 45.8093 72.1168C44.8271 71.9198 43.8149 71.7682 42.6369 71.6774ZM125.946 91.2535H106.879V86.7115H125.946V91.2535ZM135.978 83.6841H67.385C65.8153 82.0203 64.1013 80.5004 62.2628 79.1413H129.935C130.335 79.1413 130.72 78.982 131.003 78.6981C131.287 78.4141 131.446 78.0293 131.446 77.6276V9.4959C131.446 9.09495 131.287 8.70941 131.003 8.42544C130.72 8.14147 130.335 7.98218 129.935 7.98218H9.06494C8.66483 7.98218 8.2801 8.14147 7.99672 8.42544C7.71334 8.70941 7.55439 9.09495 7.55439 9.4959V77.6276C7.55439 78.0293 7.71334 78.4141 7.99672 78.6981C8.2801 78.982 8.66483 79.1413 9.06494 79.1413H16.3329C14.4936 80.5004 12.7795 82.0203 11.2106 83.6841H3.0219V3.44022H135.978V83.6841Z" fill="#9B9B9B"/>
<path d="M59.8172 46.898C59.8102 46.8732 59.8102 46.8468 59.8172 46.822C59.1867 41.7397 56.7219 37.0644 52.886 33.6733C49.0509 30.2831 44.1097 28.412 38.9926 28.412C33.8748 28.412 28.9336 30.2831 25.0985 33.6733C21.2634 37.0644 18.7986 41.7397 18.1673 46.822C18.1603 46.8522 18.1603 46.8832 18.1673 46.9135C18.0643 47.7382 18.0085 48.5683 18 49.3992C18 52.1585 18.543 54.8907 19.5988 57.44C20.6538 59.9901 22.2007 62.3061 24.1504 64.2577C26.1008 66.2087 28.4154 67.7565 30.9638 68.813C33.5115 69.8687 36.242 70.412 38.9996 70.412C41.758 70.412 44.4885 69.8687 47.0362 68.813C49.5846 67.7565 51.8992 66.2087 53.8496 64.2577C55.7993 62.3061 57.3462 59.9901 58.4012 57.44C59.457 54.8907 60 52.1585 60 49.3992C59.9861 48.5629 59.9249 47.7273 59.8172 46.898ZM38.9694 31.4356C43.2267 31.4403 47.3429 32.9579 50.5862 35.7173C53.8295 38.4766 55.9883 42.2986 56.6777 46.5019L55.2912 47.4925C54.7598 45.9694 53.7675 44.6494 52.453 43.7154C51.1385 42.7807 49.566 42.2792 47.9533 42.2792C46.3406 42.2792 44.7681 42.7807 43.4536 43.7154C42.1383 44.6494 41.1468 45.9694 40.6155 47.4925C40.0748 47.3754 39.5225 47.3243 38.9694 47.3406C38.4156 47.3359 37.8633 47.3971 37.3234 47.5235C36.7959 45.9981 35.8067 44.6758 34.4929 43.7395C33.1792 42.8032 31.606 42.3001 29.9932 42.3001C28.3805 42.3001 26.8081 42.8032 25.4943 43.7395C24.1806 44.6758 23.1907 45.9981 22.6632 47.5235L21.2766 46.5321C21.9559 42.3242 24.1093 38.496 27.3503 35.7304C30.5913 32.9649 34.7098 31.4426 38.9694 31.4356ZM52.6854 50.1154C52.6854 51.0595 52.4058 51.9826 51.8813 52.7678C51.3569 53.5521 50.6118 54.1637 49.7403 54.5257C48.8689 54.8869 47.9099 54.9814 46.9843 54.797C46.0594 54.6125 45.2096 54.1583 44.5419 53.4909C43.875 52.8228 43.4211 51.9725 43.2367 51.047C43.0531 50.1208 43.1469 49.1613 43.5086 48.2893C43.8696 47.4173 44.4807 46.6716 45.2654 46.1469C46.0493 45.6229 46.9719 45.3424 47.9153 45.3424C49.1803 45.3424 50.3933 45.8454 51.288 46.7406C52.1827 47.6359 52.6854 48.8497 52.6854 50.1154ZM34.7176 50.1154C34.7176 51.0595 34.438 51.9826 33.9135 52.7678C33.3899 53.5521 32.6447 54.1637 31.7733 54.5257C30.9019 54.8869 29.9421 54.9814 29.0172 54.797C28.0916 54.6125 27.2418 54.1583 26.5749 53.4909C25.908 52.8228 25.4533 51.9725 25.2697 51.047C25.0853 50.1208 25.1798 49.1613 25.5408 48.2893C25.9018 47.4173 26.513 46.6716 27.2976 46.1469C28.0823 45.6229 29.0041 45.3424 29.9476 45.3424C30.5781 45.3369 31.2032 45.4555 31.7872 45.6927C32.3713 45.9299 32.9027 46.2802 33.3504 46.7244C33.7981 47.1685 34.1537 47.6963 34.3961 48.2784C34.6386 48.8605 34.7633 49.4852 34.7633 50.1154H34.7176ZM38.9694 67.3318C34.3404 67.324 29.8933 65.5273 26.5563 62.3161C23.2201 59.1049 21.2518 54.7288 21.0628 50.1007L22.2673 50.9695C22.4602 52.9259 23.3866 54.7365 24.8599 56.0371C26.3332 57.3369 28.2442 58.0314 30.2078 57.9787C32.1715 57.9268 34.0429 57.1323 35.4449 55.7557C36.847 54.3784 37.6766 52.5213 37.7657 50.558C38.5573 50.3293 39.397 50.3293 40.1886 50.558C40.1344 52.6205 40.9005 54.6202 42.3196 56.1177C43.7387 57.6144 45.6938 58.4864 47.755 58.5406C49.8162 58.5957 51.8147 57.8283 53.3113 56.4084C54.807 54.9884 55.6785 53.0321 55.7327 50.9695L56.9372 50.1007C56.7443 54.7381 54.7667 59.1212 51.4173 62.3332C48.0687 65.5444 43.6085 67.3356 38.9694 67.3318Z" fill="#9B9B9B"/>
<path d="M67.4181 93.412H53.5819C53.1623 93.412 52.7596 93.5877 52.4638 93.901C52.1672 94.2143 52 94.6388 52 95.0819V99.742C52 100.185 52.1672 100.61 52.4638 100.923C52.7596 101.236 53.1623 101.412 53.5819 101.412H67.4181C67.8377 101.412 68.2404 101.236 68.537 100.923C68.8328 100.61 69 100.185 69 99.742V95.0819C69 94.6388 68.8328 94.2143 68.537 93.901C68.2404 93.5877 67.8377 93.412 67.4181 93.412ZM65.8371 98.0721H55.1629V96.7519H65.8371V98.0721Z" fill="#9B9B9B"/>
</svg>
